Zila Ghaziabad (2013)


 
http://www.shotpix.com/images/91801164291943612018.jpg





[B]INFO[/B]
[code]General
Format : MPEG-PS
File size : 711 MiB
Duration : 2h 9mn
Overall bit rate mode : Variable
Overall bit rate : 770 Kbps
Video #224
ID : 224 (0xE0)
Format : MPEG Video
Format version : Version 2
Format profile : Main@Main
Format settings, BVOP : Yes
Format settings, Matrix : Default
Format settings, GOP : Variable
Duration : 2h 9mn
Bit rate mode : Variable
Bit rate : 627 Kbps
Width : 352 pixels
Height : 288 pixels
Display aspect ratio : 4:3
Frame rate : 25.000 fps
Standard : PAL
Color space : YUV
Chroma subsampling : 4:2:0
Bit depth : 8 bits
Scan type : Progressive
Compression mode : Lossy
Bits/(Pixel*Frame) : 0.247
Stream size : 578 MiB (81%)

AUDIO

Audio #192
ID : 192 (0xC0)
Format : MPEG Audio
Format version : Version 1
Format profile : Layer 2
Duration : 2h 9mn
Bit rate mode : Constant
Bit rate : 128 Kbps
Channel(s) : 2 channels
Sampling rate : 48.0 KHz
Compression mode : Lossy
Delay relative to video : -600ms
Stream size : 118 MiB (17%)[/code]






SCREEN SHOTS
 
http://www.shotpix.com/images/68142978105732069199.png
 
http://www.shotpix.com/images/61562551297712711246.png
 
http://www.shotpix.com/images/76933028014483999855.png
 
http://www.shotpix.com/images/04252219257028082022.png
 
http://www.shotpix.com/images/15994501391706894911.png
 
http://www.shotpix.com/images/05326832812030215985.png
 
http://www.shotpix.com/images/42664118157514088531.png
 
http://www.shotpix.com/images/42687312747226052970.png
 
http://www.shotpix.com/images/63603638149614599157.png